# xmcd
#
# Track frame offsets:
#	150
#	18802
#	33540
#	52093
#	69222
#	81344
#	96902
#	114493
#	129477
#	147642
#	165959
#
# Disc length: 2402 seconds
#
# Revision: 1
# Processed by: cddbd v1.5.1PL2 Copyright (c) Steve Scherf et al.
# Submitted via: audiograbber 1.83.01
#
DISCID=9009600b
DTITLE=Ryan T. Briggs - Let It Roll
DYEAR=2006
DGENRE=Country
TTITLE0=Clay Henry
TTITLE1=Las Vegas, West Texas
TTITLE2=Fly
TTITLE3=Let It Roll
TTITLE4=Swimmin´ To The Gulf Of Mexico
TTITLE5=More Than Lovers
TTITLE6=Redneck Hippie
TTITLE7=Freight Train
TTITLE8=Sunset Watchin´ Cowgirl
TTITLE9=One Too Many Questions
TTITLE10=The Bitch Next Door
EXTD=
EXTT0=
EXTT1=
EXTT2=
EXTT3=
EXTT4=
EXTT5=
EXTT6=
EXTT7=
EXTT8=
EXTT9=
EXTT10=
PLAYORDER=
